<?xml version="1.0"?>
<svg xmlns="http://www.w3.org/2000/svg" xmlns:xlink="http://www.w3.org/1999/xlink" xmlns:svgjs="http://svgjs.com/svgjs" version="1.1" width="60" height="60" x="0" y="0" viewBox="0 0 468.293 468.293" style="enable-background:new 0 0 512 512" xml:space="preserve" class=""><g>
<path xmlns="http://www.w3.org/2000/svg" style="" d="M468.293,108.854H0V46.415c0-6.897,5.591-12.488,12.488-12.488h443.317  c6.897,0,12.488,5.591,12.488,12.488V108.854z" fill="#3a556a" data-original="#3a556a"/>
<path xmlns="http://www.w3.org/2000/svg" style="" d="M468.293,108.854h-256l38.11-43.554c3.557-4.065,8.696-6.397,14.097-6.397h203.793V108.854z" fill="#d5d6db" data-original="#d5d6db" class=""/>
<path xmlns="http://www.w3.org/2000/svg" style="" d="M449.561,434.366H18.732C8.386,434.366,0,425.979,0,415.634v-306.78h468.293v306.78  C468.293,425.979,459.906,434.366,449.561,434.366z" fill="#363636" data-original="#ebf0f3" class=""/>
<circle xmlns="http://www.w3.org/2000/svg" style="" cx="58.137" cy="71.393" r="18.732" fill="#fcd462" data-original="#fcd462"/>
<circle xmlns="http://www.w3.org/2000/svg" style="" cx="114.332" cy="71.393" r="18.732" fill="#e1e6e9" data-original="#e1e6e9" class=""/>
<circle xmlns="http://www.w3.org/2000/svg" style="" cx="170.527" cy="71.393" r="18.732" fill="#27a2db" data-original="#27a2db" class=""/>
<rect xmlns="http://www.w3.org/2000/svg" x="39.405" y="153.413" style="" width="112.39" height="112.39" fill="#e56353" data-original="#e56353" class=""/>
<rect xmlns="http://www.w3.org/2000/svg" x="39.405" y="292.652" style="" width="112.39" height="35.172" fill="#44c4a1" data-original="#44c4a1"/>
<rect xmlns="http://www.w3.org/2000/svg" x="39.405" y="354.654" style="" width="112.39" height="35.172" fill="#1c75a1" data-original="#1c75a1" class=""/>
<g xmlns="http://www.w3.org/2000/svg">
	<rect x="190.233" y="172.02" style="" width="238.642" height="12.488" fill="#d5d6db" data-original="#d5d6db" class=""/>
	<rect x="190.233" y="203.426" style="" width="238.642" height="12.488" fill="#d5d6db" data-original="#d5d6db" class=""/>
	<rect x="190.233" y="234.646" style="" width="238.642" height="12.488" fill="#d5d6db" data-original="#d5d6db" class=""/>
	<rect x="190.233" y="303.703" style="" width="238.642" height="12.488" fill="#d5d6db" data-original="#d5d6db" class=""/>
	<rect x="190.233" y="335.048" style="" width="238.642" height="12.488" fill="#d5d6db" data-original="#d5d6db" class=""/>
	<rect x="190.233" y="366.267" style="" width="238.642" height="12.488" fill="#d5d6db" data-original="#d5d6db" class=""/>
</g>
<g xmlns="http://www.w3.org/2000/svg">
</g>
<g xmlns="http://www.w3.org/2000/svg">
</g>
<g xmlns="http://www.w3.org/2000/svg">
</g>
<g xmlns="http://www.w3.org/2000/svg">
</g>
<g xmlns="http://www.w3.org/2000/svg">
</g>
<g xmlns="http://www.w3.org/2000/svg">
</g>
<g xmlns="http://www.w3.org/2000/svg">
</g>
<g xmlns="http://www.w3.org/2000/svg">
</g>
<g xmlns="http://www.w3.org/2000/svg">
</g>
<g xmlns="http://www.w3.org/2000/svg">
</g>
<g xmlns="http://www.w3.org/2000/svg">
</g>
<g xmlns="http://www.w3.org/2000/svg">
</g>
<g xmlns="http://www.w3.org/2000/svg">
</g>
<g xmlns="http://www.w3.org/2000/svg">
</g>
<g xmlns="http://www.w3.org/2000/svg">
</g>
</g></svg>
